
<svg xmlns="http://www.w3.org/2000/svg" version="1.1" xmlns:xlink="http://www.w3.org/1999/xlink" preserveAspectRatio="none" x="0px" y="0px" width="222px" height="75px" viewBox="0 0 222 75">
<defs/>

<g id="logo">
<g id="Layer_1" transform="matrix( 1.0356597900390625, 0, 0, 1.0356597900390625, -2.75,7.35) ">
<g>
<g>
<g>
<path fill="#000000" stroke="none" d="
M 66.4 46.55
Q 61.8 45.3 62.05 41.8 69.45 43.55 76.45 42.45 81.8 41.7 80.65 37.8 79.25 29.25 68.45 28.35 54.55 27.65 55.4 42.1 56.5 52.1 66.95 53.7 70.75 54.2 74.5 52.75 78.2 51.2 79.85 49.25 81.45 47.25 81.05 44.95 79.6 41.8 76.6 44.3 72 48 66.4 46.55
M 73.3 35.7
Q 73.85 36 74.4 36.4 68.1 37.15 62 36.4 62.55 36 63.15 35.7 68.3 32.85 73.3 35.7
M 53.95 47.2
Q 54 44.45 53.85 41.7 53.7 38.9 52.9 36.1 52.1 33.25 50.2 30.8 48.25 28.35 45.6 27.35 42.95 26.3 40.1 26.35 37.2 26.4 34.15 27.7 31.1 28.95 29.45 31 27.75 33 26.8 35.8 25.9 38.5 25.85 41.35 25.8 44.15 26.15 47.15 26.45 50.1 27.55 52.65
L 35.2 53.55
Q 31.3 35.3 40 35.05 49.05 34.6 45.55 53.45
L 53.5 52.75
Q 53.9 49.9 53.95 47.2
M 96.5 28.9
L 94.6 28.9
Q 92.55 28.9 90.75 29.5 88 30.35 85.8 32.55 82.1 36.2 82.1 41.35
L 82.1 41.4
Q 82.1 46.55 85.8 50.25 86.85 51.3 88 52.05 90.95 53.9 94.6 53.9
L 96.5 53.9
Q 98.6 53.9 100.5 53.3 103.2 52.4 105.35 50.25 108.45 47.15 108.9 43 108.95 41.95 109 40.9 108.85 36.05 105.35 32.55 102.6 29.8 99 29.15 97.8 28.9 96.5 28.9
M 97.05 35.05
Q 98.8 35.05 100 36.25 101.25 37.5 101.25 39.25
L 101.25 42.8
Q 101.2 44.05 100.5 45 100.3 45.3 100 45.55 98.8 46.8 97.05 46.8
L 93.65 46.8
Q 91.9 46.8 90.65 45.55 90.3 45.2 90.05 44.75 89.55 43.9 89.5 42.85
L 89.5 39.25
Q 89.5 37.5 90.65 36.25 91.9 35.05 93.65 35.05
L 97.05 35.05
M 135.4 47.3
Q 137.2673828125 44.5154296875 136.7 40.4 136.3826171875 38.234375 135.4 35.7 130.4 27.3 110.45 30.95 109.7857421875 35.742578125 109.5 40.4 109.5126953125 40.6501953125 109.5 40.9 109.45 41.95 109.4 43 109.1 51.65 110.25 59.9
L 118.05 60.6 117.05 53.15
Q 131.45 55.05 135.4 47.3
M 124.95 35.7
Q 126.7 35.7 127.9 36.8 129.15 38.05 129.15 39.65
L 129.15 40.15 129.15 42.85 129.15 43.3
Q 129.15 45 127.9 46.15 126.7 47.35 124.95 47.35
L 120.65 47.35
Q 118.9 47.35 117.65 46.15 116.5 45 116.5 43.3
L 116.5 42.85 116.5 40.15 116.5 39.65
Q 116.5 38.05 117.65 36.8 118.9 35.7 120.65 35.7
L 124.95 35.7
M 127.9 45.55
Q 126.7 46.75 124.95 46.75
L 120.65 46.75
Q 118.9 46.75 117.65 45.55 116.551171875 44.451171875 116.5 42.85
L 116.5 43.3
Q 116.5 45 117.65 46.15 118.9 47.35 120.65 47.35
L 124.95 47.35
Q 126.7 47.35 127.9 46.15 129.15 45 129.15 43.3
L 129.15 42.85
Q 129.09453125 44.451171875 127.9 45.55
M 163.05 40.4
Q 163.177734375 39.6419921875 162.9 38.7 161.5 30.15 150.7 29.25 138.1158203125 28.6162109375 137.6 40.4 137.56953125 41.63203125 137.65 43 138.75 53 149.2 54.6 153.000390625 55.1044921875 156.75 53.6 160.4982421875 52.136328125 162.15 49.95 163.8521484375 47.81796875 163.3 45.85 161.85 42.7 158.85 45.2 154.25 48.9 148.65 47.45 144.05 46.2 144.3 42.7 151.7 44.45 158.7 43.35 162.7578125 42.7810546875 163.05 40.4
M 155.95 37
Q 150.5 37.7 144.7 36.95 150.65 33.1 155.95 37
M 173.3 21.3
L 165.75 22.15 165.1 25.9 160.4 25.9 160.9 32.55 164.25 32.55
Q 163.970703125 36.5998046875 164.35 40.4 164.6716796875 43.4029296875 165.4 46.25 167.5595703125 54.1353515625 174.35 54.05 181.1466796875 54.0046875 183.7 48.2 185.2021484375 44.780078125 184.25 40.4 183.748828125 37.9279296875 182.45 35.15
L 176.95 36.65 178.15 41.45
Q 178.85 45.1 175.9 45.35 175.35 45.5 174.75 45.3 174.05 45 173.35 44.3 172.65 43.6 172.25 40.85 172.2115234375 40.634765625 172.15 40.4 171.773046875 37.5849609375 172.05 32
L 179.55 32 180.2 25.4 172.45 25.4 173.3 21.3
M 204.1 36.4
Q 204.8 35.8 205 35.25 205.2 34.7 205.3 34.2 205.2939453125 33.85 205.2 33.35 205.1939453125 33.33984375 205.15 33.3 205.0796875 32.807421875 204.6 31.65 204.0818359375 30.4 202.6 29.4
L 202.6 29.35
Q 201.137109375 28.3943359375 198.9 27.7 196.65 27.05 193.6 27.3 190.55 27.3 187.7 28.85 187.35 29.05 187.1 29.2 186.4474609375 29.696875 185.55 30.5 184.70703125 31.3587890625 184.3 32.45 183.9427734375 33.591015625 184.05 34.85 184.15234375 36.1529296875 184.55 37.2 185.283203125 39.09765625 186.65 40.4 186.9095703125 40.6076171875 187.15 40.8 187.65 41.15 188.2 41.5 189.35 42.05 190.6 42.6 192.65 43.4 194.8 43.65 196.683984375 43.9568359375 197.2 44.7 197.7087890625 45.4447265625 197 46.15 196.2978515625 46.9046875 194.5 46.65 192.6970703125 46.387890625 191.95 46.15 191.20078125 45.905078125 190.4 45.05 189.6 44.2 189.15 44.05 188.75 43.95 188.6 43.95 188.1 43.95 187.7 43.95 186.05 44.5 185 45.9 184.35 46.7 184.55 47.85 184.65 48.15 184.8 48.6 184.85 48.8 185.1 49.2
L 185.15 49.25 186.35 51
Q 187.50703125 52.403515625 188.8 53.1 190.0857421875 53.79140625 191.6 54.2 193.162890625 54.6080078125 195.5 54.35 197.845703125 54.147265625 200.5 53.05 202.8 52.1 204.25 50 205.0509765625 48.787890625 205.45 47.2 205.6189453125 46.496875 205.65 45.75 205.6884765625 42.364453125 203.35 40.4 202.6607421875 39.8111328125 201.75 39.35 201 39.05 200.3 38.8 199.45 38.5 198.7 38.25 196.8 37.6 194.7 37.25 193.2 37.05 192.45 36.65 191.6529296875 36.1521484375 192.15 35.5 192.641015625 34.89296875 194.95 34.6 197.2619140625 34.3091796875 198.85 35.25 199.7861328125 36.099609375 199.9 36.9 200.058203125 37.70390625 200.7 38 201.34921875 38.29765625 202.35 37.7 203.35 37 204.1 36.4 Z"/>
</g>
</g>

<g>
<path stroke="#000000" stroke-width="1.5" stroke-linejoin="round" stroke-linecap="round" fill="none" d="
M 129.15 40.175
L 129.15 42.85 129.15 43.3
Q 129.15 45 127.9 46.15 126.7 47.35 124.95 47.35
L 120.65 47.35
Q 118.9 47.35 117.65 46.15 116.5 45 116.5 43.3
L 116.5 42.85 116.5 40.15
Q 116.540625 38.605859375 117.65 37.4 118.9 36.3 120.65 36.3
L 124.95 36.3
Q 126.7 36.3 127.9 37.4 129.120703125 38.620703125 129.15 40.175 Z"/>
</g>
</g>

<g>
<g>
<g>
<path fill="#000000" stroke="none" d="
M 213.9 22.9
Q 213.7 20.65 211.9 19.05 210.2 17.6 207.9 17.75 205.6 17.9 204.1 19.65 202.5 21.45 202.7 23.7 202.85 26 204.7 27.6 206.45 29.05 208.75 28.9 211.05 28.75 212.5 27 214.05 25.2 213.9 22.9
M 211.3 19.8
Q 212.8 21.05 212.95 22.95 213.1 24.85 211.8 26.35 210.6 27.8 208.7 27.95 206.75 28.1 205.3 26.85 203.85 25.55 203.7 23.65 203.55 21.75 204.8 20.3 206.05 18.85 208 18.7 209.9 18.55 211.3 19.8 Z"/>
</g>
</g>
</g>

<g transform="matrix( 1.0007781982421875, 0.03192138671875, -0.06829833984375, 0.99700927734375, 1.3,-6.7) ">
<g>
<g>
<path fill="#000000" stroke="none" d="
M 205.85 20.25
Q 205.6 20.45 205.65 20.7
L 206.05 26.4
Q 206.05 26.65 206.35 26.9 206.55 27.05 206.8 27.05 207.1 27.05 207.35 26.8 207.5 26.55 207.5 26.3
L 207.35 24.25
Q 207.75 24.2 208.15 24.15
L 210.2 26.6
Q 210.4 26.85 210.7 26.85 211 26.9 211.25 26.65 211.45 26.45 211.45 26.2 211.5 25.9 211.25 25.65
L 209.8 23.8
Q 210.2 23.7 210.55 23.45 211.4 22.75 211.15 21.6 210.9 19.55 206.3 19.95 206.05 19.95 205.85 20.25
M 207.25 22.8
L 207.15 21.35
Q 209.5 21.2 209.8 21.9 209.8 22.15 209.3 22.4 208.8 22.6 207.8 22.75
L 207.25 22.8 Z"/>
</g>
</g>
</g>

<g>
<g>
<path stroke="#000000" stroke-width="1.5" stroke-linejoin="round" stroke-linecap="round" fill="none" d="
M 93.65 35.7
L 97.05 35.7
Q 98.8 35.7 100 36.9 101.2 38.1 101.25 39.8
L 101.25 43.3
Q 101.25 44.65 100.5 45.65 100.3 45.95 100 46.2 98.8 47.45 97.05 47.45
L 93.65 47.45
Q 91.9 47.45 90.65 46.2 90 45.55 89.75 44.75 89.5 44.1 89.5 43.3
L 89.5 39.75
Q 89.55 38.1 90.65 36.9 91.9 35.7 93.65 35.7 Z"/>
</g>
</g>
</g>

<g id="stars" transform="matrix( 1.0356597900390625, 0, 0, 1.0356597900390625, -2.75,7.35) ">
<g>
<g>
<g>
<path fill="#FFEE4B" stroke="none" d="
M 16.2 23
L 12.25 20.45 11.9 25.6 6.5 29.8 11.85 30.45 12 37.65 16.2 30.85 24.85 30.95 18.9 26.2 21.55 19.9 16.2 23
M 44.15 17.85
L 53.25 21.45 49.3 13.65 55.25 7.65 48.05 9 45.15 4.5 42.25 10.2 34.4 12.75 39.8 15.6 36.4 23.85 44.15 17.85
M 90.65 23.3
L 89 11.1 99.95 5 89.55 4.2 87.65 -3.05 81 3.65 69.1 4.35 75.05 10.3 66.5 20.35 79.95 14.95 90.65 23.3 Z"/>
</g>
</g>

<g>
<path stroke="#000000" stroke-width="1.5" stroke-linejoin="round" stroke-linecap="round" fill="none" d="
M 90.65 23.3
L 79.95 14.95 66.5 20.35 75.05 10.3 69.1 4.35 81 3.65 87.65 -3.05 89.55 4.2 99.95 5 89 11.1 90.65 23.3 Z
M 53.25 21.45
L 44.15 17.85 36.4 23.85 39.8 15.6 34.4 12.75 42.25 10.2 45.15 4.5 48.05 9 55.25 7.65 49.3 13.65 53.25 21.45 Z
M 24.85 30.95
L 16.2 30.85 12 37.65 11.85 30.45 6.5 29.8 11.9 25.6 12.25 20.45 16.2 23 21.55 19.9 18.9 26.2 24.85 30.95 Z"/>
</g>
</g>
</g>
</g>
</svg>
